<?xml version="1.0" standalone="no"?>
<!DOCTYPE svg PUBLIC "-//W3C//DTD SVG 20010904//EN"
 "http://www.w3.org/TR/2001/REC-SVG-20010904/DTD/svg10.dtd">
<svg version="1.0" xmlns="http://www.w3.org/2000/svg"
 width="274.000000pt" height="1000.000000pt" viewBox="0 0 274.000000 1000.000000"
 preserveAspectRatio="xMidYMid meet">

<g transform="translate(0.000000,1000.000000) scale(0.100000,-0.100000)"
fill="#000000" stroke="none">
<path d="M92 9923 l3 -58 288 -3 c158 -1 287 -5 287 -8 0 -17 -74 -161 -115
-224 -61 -91 -205 -243 -294 -309 -37 -28 -102 -67 -144 -87 -48 -23 -74 -40
-70 -48 3 -6 19 -28 35 -48 l29 -38 52 26 c98 50 192 119 290 213 l98 95 170
-170 170 -169 45 50 c24 27 44 52 44 56 0 3 -81 76 -180 163 -99 86 -180 160
-180 163 0 3 16 30 35 58 58 88 112 195 144 288 17 49 31 93 31 98 0 5 -152 9
-370 9 l-371 0 3 -57z"/>
<path d="M2313 9910 c-61 -37 -84 -104 -57 -168 16 -39 35 -59 122 -126 68
-52 102 -100 102 -142 -1 -50 -52 -94 -109 -94 -28 0 -43 9 -78 45 -37 39 -46
44 -63 35 -26 -14 -25 -19 10 -61 73 -90 206 -93 271 -6 19 25 24 44 24 88 0
69 -25 106 -130 187 -108 84 -128 130 -80 177 36 37 84 34 129 -8 34 -32 35
-33 58 -16 l23 18 -29 30 c-58 61 -134 77 -193 41z"/>
<path d="M1380 9683 c0 -5 -1 -2111 -2 -4681 -3 -4444 -2 -4672 15 -4672 16 0
17 230 17 4680 0 4153 -2 4680 -15 4680 -8 0 -15 -3 -15 -7z"/>
<path d="M2250 9115 c0 -24 2 -25 65 -25 l65 0 0 -260 0 -260 25 0 25 0 0 260
0 260 65 0 c63 0 65 1 65 25 l0 25 -155 0 -155 0 0 -25z"/>
<path d="M412 8876 c-63 -135 -158 -249 -272 -326 -33 -23 -60 -43 -60 -45 0
-8 62 -75 70 -75 5 0 70 59 146 130 l137 130 199 0 c109 0 198 -4 198 -8 0
-41 -77 -216 -119 -271 l-18 -24 -128 82 -128 82 -40 -39 -40 -40 122 -81 c66
-45 121 -87 121 -94 0 -17 -168 -126 -247 -161 -59 -25 -121 -45 -186 -60
l-28 -7 32 -47 c18 -26 33 -48 35 -50 5 -7 134 33 214 67 265 113 447 329 525
621 38 145 61 130 -205 130 -152 0 -230 4 -230 10 0 6 11 33 25 60 14 27 21
51 17 53 -4 2 -24 7 -45 11 -21 4 -44 9 -51 12 -9 3 -24 -18 -44 -60z"/>
<path d="M2220 8143 c0 -115 5 -225 9 -247 30 -128 219 -170 313 -70 47 51 51
75 56 307 l4 217 -31 0 -31 0 0 -210 c0 -230 -6 -262 -54 -294 -45 -29 -89
-31 -139 -7 -72 35 -77 56 -77 301 l0 210 -25 0 -25 0 0 -207z"/>
<path d="M922 7883 c-27 -5 -26 -15 9 -109 21 -54 22 -56 52 -50 17 4 35 10
39 14 5 5 -2 39 -15 78 -25 72 -32 78 -85 67z"/>
<path d="M770 7871 c-29 -9 -29 -4 0 -102 l22 -77 37 10 c20 6 38 12 40 14 2
2 -7 40 -20 84 -24 84 -27 86 -79 71z"/>
<path d="M176 7752 l-25 -49 137 -52 c75 -28 144 -54 153 -57 12 -4 21 8 37
47 12 29 21 53 20 54 -7 4 -285 105 -291 105 -4 0 -18 -22 -31 -48z"/>
<path d="M828 7542 c-21 -53 -55 -126 -75 -162 -53 -91 -163 -200 -242 -240
-73 -36 -219 -76 -317 -86 -60 -6 -65 -9 -60 -28 3 -12 9 -38 12 -58 6 -33 10
-38 33 -38 90 0 284 56 396 113 108 55 204 151 277 277 53 91 128 247 128 267
0 8 -95 53 -110 53 -3 0 -22 -44 -42 -98z"/>
<path d="M2228 7582 l-48 -3 0 -285 0 -284 113 0 c193 0 275 35 330 140 23 45
27 64 27 135 0 45 -5 97 -12 116 -33 99 -117 164 -224 174 -99 9 -137 11 -186
7z m247 -79 c114 -59 158 -198 101 -319 -40 -86 -93 -111 -243 -117 l-103 -4
0 235 0 235 103 -5 c77 -4 112 -10 142 -25z"/>
<path d="M95 7525 c-31 -73 -29 -76 118 -134 72 -29 137 -55 143 -58 9 -3 59
107 51 113 -1 1 -46 18 -100 38 -55 21 -121 46 -148 57 l-50 19 -14 -35z"/>
<path d="M2380 6515 l0 -285 25 0 25 0 0 285 0 285 -25 0 -25 0 0 -285z"/>
<path d="M628 6653 l-3 -88 -272 -3 -273 -2 0 -55 0 -55 229 0 c127 0 232 -4
235 -8 8 -13 -75 -130 -149 -210 -59 -64 -218 -200 -284 -242 l-23 -15 28 -47
c16 -26 34 -47 39 -47 21 -1 164 113 253 202 52 50 118 127 149 170 30 42 59
77 64 77 5 0 9 -110 9 -270 l0 -271 56 3 56 3 1 325 2 325 123 3 122 3 0 54 0
55 -125 0 -125 0 0 90 0 90 -55 0 -54 0 -3 -87z"/>
<path d="M2303 6031 c-219 -75 -272 -356 -97 -510 114 -100 301 -94 409 14 64
64 80 108 80 215 0 86 -3 100 -27 142 -78 131 -225 188 -365 139z m203 -62
c201 -97 180 -391 -32 -455 -67 -20 -111 -17 -169 10 -154 72 -194 260 -82
392 62 73 192 97 283 53z"/>
<path d="M938 5623 c-22 -6 -22 -1 5 -90 l22 -75 40 7 c21 3 41 8 43 10 2 2
-7 37 -20 77 -26 76 -38 86 -90 71z"/>
<path d="M800 5613 c-8 -2 -20 -6 -27 -8 -8 -3 -8 -16 3 -52 8 -26 19 -64 24
-84 l10 -36 43 10 44 10 -25 83 c-26 84 -32 91 -72 77z"/>
<path d="M195 5492 c-10 -26 -18 -49 -17 -51 0 -2 40 -16 87 -32 47 -16 107
-40 135 -54 27 -14 54 -25 59 -25 10 0 66 99 59 105 -7 6 -283 105 -292 105
-6 0 -20 -21 -31 -48z"/>
<path d="M883 5363 c-135 -377 -321 -538 -658 -569 -41 -4 -75 -11 -75 -16 0
-18 23 -103 30 -111 8 -10 199 27 274 53 246 84 382 224 508 523 l37 87 -49
25 c-59 30 -59 30 -67 8z"/>
<path d="M105 5248 c-14 -29 -21 -56 -17 -60 6 -5 81 -36 280 -115 7 -3 22 16
37 52 14 32 25 59 23 60 -24 21 -127 61 -286 111 -8 2 -23 -17 -37 -48z"/>
<path d="M2297 4595 c-76 -29 -122 -70 -164 -150 -23 -42 -27 -63 -27 -130 -1
-71 3 -86 29 -134 60 -108 155 -163 283 -163 114 -1 183 29 238 104 26 34 54
115 54 155 0 23 -1 23 -120 23 l-120 0 0 -25 c0 -25 1 -25 90 -25 50 0 90 -4
90 -9 0 -20 -30 -78 -53 -103 -67 -73 -197 -91 -295 -42 -199 99 -182 377 27
449 87 29 167 16 252 -41 53 -35 74 -38 86 -8 7 19 -19 42 -92 81 -42 23 -65
27 -145 30 -65 2 -107 -2 -133 -12z"/>
<path d="M965 4575 c-5 -2 -22 -6 -37 -9 l-27 -6 15 -52 c30 -101 28 -98 71
-85 21 6 39 11 40 12 6 3 -40 145 -46 144 -3 0 -10 -2 -16 -4z"/>
<path d="M780 4563 c-39 -7 -42 -15 -20 -78 11 -32 20 -62 20 -67 0 -4 -157
-8 -350 -8 l-350 0 0 -55 0 -55 348 -2 347 -3 -3 -30 c-14 -136 -88 -293 -181
-385 l-67 -65 -172 -59 c-95 -33 -172 -63 -172 -68 0 -18 56 -108 67 -108 7 0
54 13 105 30 330 106 513 356 551 753 4 39 2 47 -12 47 -12 0 -20 16 -30 57
-7 31 -17 67 -22 80 -9 23 -13 24 -59 16z"/>
<path d="M2200 3545 l0 -285 28 0 27 0 0 135 0 136 145 1 145 1 3 -137 3 -136
24 0 25 0 0 285 0 285 -25 0 -25 0 0 -120 0 -120 -150 0 -150 0 0 120 0 120
-25 0 -25 0 0 -285z"/>
<path d="M798 2993 c-3 -279 -4 -290 -27 -341 -13 -29 -41 -68 -63 -86 -35
-31 -54 -37 -209 -67 -93 -18 -174 -36 -179 -39 -14 -9 21 -110 38 -110 9 0
67 10 131 21 188 35 321 112 376 219 52 103 58 138 63 423 l4 267 -65 0 -66 0
-3 -287z"/>
<path d="M250 2965 l0 -295 60 0 60 0 0 295 0 295 -60 0 -60 0 0 -295z"/>
<path d="M2380 2765 l0 -285 25 0 25 0 0 285 0 285 -25 0 -25 0 0 -285z"/>
<path d="M2242 1978 l3 -283 100 -3 c88 -2 106 0 145 20 60 31 90 77 90 141 0
62 -27 109 -77 132 -36 17 -36 18 -16 34 26 20 53 73 53 103 0 13 -9 41 -19
64 -25 56 -72 74 -192 74 l-90 0 3 -282z m207 206 c78 -65 8 -164 -116 -164
l-33 0 0 95 0 95 59 0 c49 0 65 -4 90 -26z m-15 -225 c72 -20 110 -81 86 -139
-20 -48 -57 -68 -143 -76 l-77 -7 0 117 0 116 48 0 c26 0 64 -5 86 -11z"/>
<path d="M256 2163 c-40 -129 -117 -270 -194 -355 -34 -38 -35 -40 -22 -77 23
-69 25 -70 72 -23 24 23 47 42 51 42 4 0 7 -126 7 -280 l0 -280 55 0 55 0 0
378 0 377 46 115 c25 63 48 120 51 127 3 7 -15 15 -47 22 -28 6 -52 11 -54 11
-1 0 -10 -26 -20 -57z"/>
<path d="M525 2207 c-31 -101 -43 -132 -71 -188 -18 -37 -56 -95 -83 -129 -28
-35 -51 -67 -51 -72 0 -16 52 -88 61 -83 4 3 43 55 86 115 67 95 81 110 105
110 l28 0 0 -385 0 -385 55 0 55 0 0 120 0 120 170 0 170 0 0 50 0 50 -170 0
-170 0 0 85 0 85 170 0 170 0 0 50 0 50 -170 0 -170 0 0 80 0 80 180 0 180 0
0 50 0 50 -235 0 c-129 0 -235 4 -235 8 0 4 9 36 21 71 12 34 20 63 18 65 -2
2 -28 6 -57 9 -37 4 -54 3 -57 -6z"/>
<path d="M2287 1208 l3 -283 135 -3 135 -3 0 26 0 25 -110 0 -110 0 0 260 0
260 -27 0 -28 0 2 -282z"/>
<path d="M140 820 l0 -190 375 0 375 0 0 190 0 190 -375 0 -375 0 0 -190z
m648 5 l-3 -95 -265 -1 -265 -2 -3 97 -3 96 271 0 271 0 -3 -95z"/>
<path d="M2380 425 l0 -285 25 0 25 0 0 285 0 285 -25 0 -25 0 0 -285z"/>
<path d="M40 275 l0 -255 45 0 c41 0 45 2 45 25 l0 25 121 0 c119 0 120 0 117
-23 -3 -20 2 -22 45 -25 l47 -3 0 255 0 256 -210 0 -210 0 0 -255z m321 30 l0
-130 -113 0 -113 0 -3 119 c-1 66 0 126 2 133 4 11 31 13 116 11 l111 -3 0
-130z"/>
<path d="M550 275 l0 -255 49 0 c44 0 50 3 53 23 3 21 7 22 121 25 l117 3 0
-26 c0 -24 3 -25 55 -25 l55 0 0 255 0 255 -225 0 -225 0 0 -255z m340 30 l0
-136 -117 3 -118 3 -2 124 c-1 69 0 128 3 133 3 4 57 8 120 8 l114 0 0 -135z"/>
</g>
</svg>
